<mxfile host="app.diagrams.net" modified="2021-11-10T07:01:46.453Z" agent="5.0 (Windows NT 10.0; Win64; x64) AppleWebKit/537.36 (KHTML, like Gecko) Chrome/95.0.4638.69 Safari/537.36 Edg/95.0.1020.44" etag="JgO37r2t-FCUjlF0OpQj" version="15.7.1" type="github">
  <diagram id="C5RBs43oDa-KdzZeNtuy" name="Page-1">
    <mxGraphModel dx="981" dy="574" grid="1" gridSize="10" guides="1" tooltips="1" connect="1" arrows="1" fold="1" page="1" pageScale="1" pageWidth="827" pageHeight="1169" math="0" shadow="1">
      <root>
        <mxCell id="WIyWlLk6GJQsqaUBKTNV-0" />
        <mxCell id="WIyWlLk6GJQsqaUBKTNV-1" parent="WIyWlLk6GJQsqaUBKTNV-0" />
        <mxCell id="Xgg4uX5KZTsvFxyTCTNp-2" value="Receptionist" style="swimlane;fillColor=#09555B;strokeColor=#BAC8D3;fontColor=#EEEEEE;" vertex="1" parent="WIyWlLk6GJQsqaUBKTNV-1">
          <mxGeometry x="325" y="291" width="180" height="170" as="geometry" />
        </mxCell>
        <mxCell id="Xgg4uX5KZTsvFxyTCTNp-17" value="1. ROOM AVAILIBILITY&lt;br&gt;2. CURRENTLY OCCUPIED&lt;br&gt;3. TOTAL COST / ROOM&lt;br&gt;4. EMERGENCY SERVICES&lt;br&gt;[Medical/Fire Fighter/Crime]&lt;br&gt;5. Unresolved Complaints&lt;br&gt;6. Event Organization&lt;br&gt;7. Transport Bookings" style="text;html=1;align=center;verticalAlign=middle;resizable=0;points=[];autosize=1;strokeColor=none;fillColor=none;fontColor=#000000;" vertex="1" parent="Xgg4uX5KZTsvFxyTCTNp-2">
          <mxGeometry x="5" y="25" width="170" height="120" as="geometry" />
        </mxCell>
        <mxCell id="Xgg4uX5KZTsvFxyTCTNp-3" value="Customer Services" style="swimlane;fontStyle=1;labelBorderColor=none;fillColor=#09555B;strokeColor=#BAC8D3;fontColor=#EEEEEE;" vertex="1" parent="WIyWlLk6GJQsqaUBKTNV-1">
          <mxGeometry x="140" y="110" width="180" height="160" as="geometry" />
        </mxCell>
        <mxCell id="Xgg4uX5KZTsvFxyTCTNp-15" value="&lt;font color=&quot;#000000&quot;&gt;&amp;nbsp; &amp;nbsp; &amp;nbsp; &amp;nbsp; 1. ROOM SERVICES&lt;br&gt;2. FOOD MENU&lt;br&gt;3.COMPLAINTS&lt;br&gt;4. BOOKING EXTENSIONS&lt;br&gt;5. EXTRA UTILITY REQUESTS&lt;br&gt;6. EVENT BOOKING REQUESTS&lt;br&gt;&lt;br&gt;&lt;/font&gt;" style="text;html=1;align=center;verticalAlign=middle;resizable=0;points=[];autosize=1;strokeColor=none;fillColor=none;fontColor=#EEEEEE;" vertex="1" parent="Xgg4uX5KZTsvFxyTCTNp-3">
          <mxGeometry x="-20" y="40" width="200" height="100" as="geometry" />
        </mxCell>
        <mxCell id="Xgg4uX5KZTsvFxyTCTNp-6" value="" style="shape=flexArrow;endArrow=classic;startArrow=classic;html=1;rounded=0;strokeColor=#0B4D6A;" edge="1" parent="WIyWlLk6GJQsqaUBKTNV-1">
          <mxGeometry width="100" height="100" relative="1" as="geometry">
            <mxPoint x="320" y="390" as="sourcePoint" />
            <mxPoint x="220" y="270" as="targetPoint" />
            <Array as="points">
              <mxPoint x="220" y="390" />
            </Array>
          </mxGeometry>
        </mxCell>
        <mxCell id="Xgg4uX5KZTsvFxyTCTNp-7" value="Stock Management" style="swimlane;fillColor=#09555B;strokeColor=#BAC8D3;fontColor=#EEEEEE;" vertex="1" parent="WIyWlLk6GJQsqaUBKTNV-1">
          <mxGeometry x="570" y="110" width="200" height="160" as="geometry" />
        </mxCell>
        <mxCell id="Xgg4uX5KZTsvFxyTCTNp-16" value="1. Extra Utility Items(Mattress,pillow)&lt;br&gt;2. Food Stock&lt;br&gt;3. Beverage Stock&lt;br&gt;" style="text;html=1;align=center;verticalAlign=middle;resizable=0;points=[];autosize=1;strokeColor=none;fillColor=none;fontColor=#000000;" vertex="1" parent="Xgg4uX5KZTsvFxyTCTNp-7">
          <mxGeometry x="-10" y="65" width="210" height="50" as="geometry" />
        </mxCell>
        <mxCell id="Xgg4uX5KZTsvFxyTCTNp-9" value="Administrator" style="swimlane;fillColor=#09555B;strokeColor=#BAC8D3;fontColor=#EEEEEE;" vertex="1" parent="WIyWlLk6GJQsqaUBKTNV-1">
          <mxGeometry x="580" y="360" width="180" height="166" as="geometry" />
        </mxCell>
        <mxCell id="Xgg4uX5KZTsvFxyTCTNp-18" value="1. ALL Check-in/Check-out Logs&lt;br&gt;2. Customer Complaint Logs&lt;br&gt;3. Customer Info Logs.&lt;br&gt;4. Booking Revoking/Overwriting &lt;br&gt;Abilities" style="text;html=1;align=center;verticalAlign=middle;resizable=0;points=[];autosize=1;strokeColor=none;fillColor=none;fontColor=#000000;" vertex="1" parent="Xgg4uX5KZTsvFxyTCTNp-9">
          <mxGeometry x="-10" y="60" width="190" height="80" as="geometry" />
        </mxCell>
        <mxCell id="Xgg4uX5KZTsvFxyTCTNp-10" value="" style="shape=flexArrow;endArrow=classic;startArrow=classic;html=1;rounded=0;strokeColor=#0B4D6A;" edge="1" parent="WIyWlLk6GJQsqaUBKTNV-1">
          <mxGeometry width="100" height="100" relative="1" as="geometry">
            <mxPoint x="504" y="442.66" as="sourcePoint" />
            <mxPoint x="574" y="442.66" as="targetPoint" />
          </mxGeometry>
        </mxCell>
        <mxCell id="Xgg4uX5KZTsvFxyTCTNp-11" value="" style="shape=flexArrow;endArrow=classic;html=1;rounded=0;exitX=0.534;exitY=-0.022;exitDx=0;exitDy=0;exitPerimeter=0;strokeColor=#0B4D6A;" edge="1" parent="WIyWlLk6GJQsqaUBKTNV-1" source="Xgg4uX5KZTsvFxyTCTNp-9">
          <mxGeometry width="50" height="50" relative="1" as="geometry">
            <mxPoint x="450" y="370" as="sourcePoint" />
            <mxPoint x="676" y="270" as="targetPoint" />
          </mxGeometry>
        </mxCell>
      </root>
    </mxGraphModel>
  </diagram>
</mxfile>
